<?xml version="1.0" encoding="UTF-8"?>
<mxfile host="app.diagrams.net" modified="2024-04-21T12:30:00.000Z" agent="Mozilla/5.0" etag="B2t4V5n6M7p8">
  <diagram id="b8VnXQmFrLm3" name="Page-1">
    <mxGraphModel dx="2000" dy="1200" grid="1" gridSize="10" guides="1" tooltips="1" connect="1" arrows="1" fold="1" page="1" pageScale="1" pageWidth="827" pageHeight="1169" math="0" shadow="0">
      <root>
        <mxCell id="0" />
        <mxCell id="1" parent="0" />
        <mxCell id="2" value="图书管理系统" style="rounded=1;whiteSpace=wrap;html=1;fillColor=#dae8fc;" vertex="1" parent="1">
          <mxGeometry x="50" y="50" width="400" height="700" as="geometry" />
        </mxCell>
        <!-- User Management Module -->
        <mxCell id="3" value="用户管理模块" style="text;strokeColor=#000000;fillColor=#e1d5e7;" vertex="1" parent="2">
          <mxGeometry x="10" y="10" width="180" height="60" as="geometry" />
        </mxCell>
        <!-- Book Retrieval Module -->
        <mxCell id="4" value="图书检索模块" style="text;strokeColor=#000000;fillColor=#ffe6cc;" vertex="1" parent="2">
          <mxGeometry x="10" y="80" width="180" height="60" as="geometry" />
        </mxCell>
        <!-- Borrowing Management Module -->
        <mxCell id="5" value="借阅管理模块" style="text;strokeColor=#000000;fillColor=#d5e8d4;" vertex="1" parent="2">
          <mxGeometry x="210" y="150" width="180" height="60" as="geometry" />
        </mxCell>
        <!-- Inventory Management Module -->
        <mxCell id="6" value="库存管理模块" style="text;strokeColor=#000000;fillColor=#f8cecc;" vertex="1" parent="2">
          <mxGeometry x="10" y="220" width="180" height="60" as="geometry" />
        </mxCell>
        <!-- Cataloging Management Module -->
        <mxCell id="7" value="编目管理模块" style="text;strokeColor=#000000;fillColor=#d5e8d4;" vertex="1" parent="2">
          <mxGeometry x="10" y="290" width="180" height="60" as="geometry" />
        </mxCell>
        <!-- Statistics and Reports Module -->
        <mxCell id="8" value="统计报表模块" style="text;strokeColor=#000000;fillColor=#e1d5e7;" vertex="1" parent="2">
          <mxGeometry x="210" y="220" width="180" height="60" as="geometry" />
        </mxCell>
        <!-- System Settings & Maintenance Module -->
        <mxCell id="9" value="系统设置和维护模块" style="text;strokeColor=#000000;fillColor=#ffe6cc;" vertex="1" parent="2">
          <mxGeometry x="210" y="290" width="180" height="60" as="geometry" />
        </mxCell>
        <!-- Connectors -->
        <mxCell id="10" style="edgeStyle=orthogonalEdgeStyle;rounded=0;orthogonalLoop=1;jettySize=auto;html=1;strokeColor=#000000;exitX=0.5;exitY=0;exitDx=0;exitDy=0;" edge="1" parent="1" source="3" target="4">
          <mxGeometry relative="1" as="geometry" />
        </mxCell>
        <mxCell id="11" style="edgeStyle=orthogonalEdgeStyle;rounded=0;orthogonalLoop=1;jettySize=auto;html=1;strokeColor=#000000;exitX=0.5;exitY=1;exitDx=0;exitDy=0;" edge="1" parent="1" source="4" target="5">
          <mxGeometry relative="1" as="geometry" />
        </mxCell>
        <mxCell id="12" style="edgeStyle=orthogonalEdgeStyle;rounded=0;orthogonalLoop=1;jettySize=auto;html=1;strokeColor=#000000;exitX=0.5;exitY=1;exitDx=0;exitDy=0;" edge="1" parent="1" source="5" target="6">
          <mxGeometry relative="1" as="geometry" />
        </mxCell>
        <mxCell id="13" style="edgeStyle=orthogonalEdgeStyle;rounded=0;orthogonalLoop=1;jettySize=auto;html=1;strokeColor=#000000;exitX=0.5;exitY=1;exitDx=0;exitDy=0;" edge="1" parent="1" source="6" target="7">
          <mxGeometry relative="1" as="geometry" />
        </mxCell>
      </root>
    </mxGraphModel>
  </diagram>
</mxfile>
